<svg width="228" height="56" viewBox="0 0 228 56" fill="none" xmlns="http://www.w3.org/2000/svg">
<path d="M1.2365 36.5182C1.2365 40.8712 4.76528 44.4 9.11825 44.4C13.4712 44.4 17 40.8712 17 36.5182C17 32.1653 13.4712 28.6365 9.11825 28.6365C4.76528 28.6365 1.2365 32.1653 1.2365 36.5182Z" fill="black"/>
<path d="M16.1 12.9L16.1 28.1L8.50006 28.1C4.30268 28.1 0.899999 24.6974 0.899999 20.5C0.899999 16.3027 4.30269 12.9 8.50006 12.9L16.1 12.9Z" stroke="black" stroke-width="1.8"/>
<path d="M16.9001 43.1L16.9 27.9H24C27.8706 27.9 31.1 31.2505 31.1 35.5C31.1 39.7496 27.8706 43.1 24 43.1H16.9001Z" stroke="black" stroke-width="1.8"/>
<path d="M31.7499 28L15 28L26.5574 17.3599L31.75 12L31.7499 28Z" fill="black"/>
<path d="M54.8849 25.3622H52.2287C52.1529 24.9266 52.0133 24.5407 51.8097 24.2045C51.6061 23.8636 51.3527 23.5748 51.0497 23.3381C50.7467 23.1013 50.401 22.9238 50.0128 22.8054C49.6293 22.6823 49.215 22.6207 48.7699 22.6207C47.9792 22.6207 47.2784 22.8196 46.6676 23.2173C46.0568 23.6103 45.5786 24.188 45.233 24.9503C44.8873 25.7079 44.7145 26.6335 44.7145 27.7273C44.7145 28.84 44.8873 29.7775 45.233 30.5398C45.5833 31.2973 46.0616 31.8703 46.6676 32.2585C47.2784 32.642 47.9768 32.8338 48.7628 32.8338C49.1984 32.8338 49.6056 32.777 49.9844 32.6634C50.3679 32.545 50.7112 32.3722 51.0142 32.1449C51.322 31.9176 51.58 31.6383 51.7884 31.3068C52.0014 30.9754 52.1482 30.5966 52.2287 30.1705L54.8849 30.1847C54.7855 30.8759 54.5701 31.5246 54.2386 32.1307C53.9119 32.7367 53.4834 33.2718 52.9531 33.7358C52.4228 34.1951 51.8026 34.5549 51.0923 34.8153C50.3821 35.071 49.5938 35.1989 48.7273 35.1989C47.4489 35.1989 46.3078 34.9029 45.304 34.3111C44.3002 33.7192 43.5095 32.8646 42.9318 31.7472C42.3542 30.6297 42.0653 29.2898 42.0653 27.7273C42.0653 26.16 42.3565 24.8201 42.9389 23.7074C43.5213 22.59 44.3144 21.7353 45.3182 21.1435C46.322 20.5516 47.4583 20.2557 48.7273 20.2557C49.5369 20.2557 50.2898 20.3693 50.9858 20.5966C51.6818 20.8239 52.3021 21.1577 52.8466 21.598C53.3911 22.0336 53.8385 22.5687 54.1889 23.2031C54.544 23.8329 54.776 24.5526 54.8849 25.3622ZM57.2979 35V20.4545H62.7525C63.8699 20.4545 64.8074 20.6487 65.565 21.0369C66.3273 21.4252 66.9026 21.9697 67.2908 22.6705C67.6838 23.3665 67.8803 24.1785 67.8803 25.1065C67.8803 26.0393 67.6815 26.849 67.2837 27.5355C66.8907 28.2173 66.3107 28.7453 65.5437 29.1193C64.7766 29.4886 63.8344 29.6733 62.717 29.6733H58.832V27.4858H62.3619C63.0153 27.4858 63.5503 27.3958 63.967 27.2159C64.3836 27.0312 64.6914 26.7637 64.8903 26.4134C65.0939 26.0582 65.1957 25.6226 65.1957 25.1065C65.1957 24.5904 65.0939 24.1501 64.8903 23.7855C64.6867 23.4162 64.3765 23.1368 63.9599 22.9474C63.5432 22.7533 63.0058 22.6562 62.3477 22.6562H59.9329V35H57.2979ZM64.8121 28.4091L68.413 35H65.4727L61.9357 28.4091H64.8121ZM70.3058 35V20.4545H79.766V22.6634H72.9407V26.6122H79.2759V28.821H72.9407V32.7912H79.8228V35H70.3058ZM84.3221 35H81.5096L86.6303 20.4545H89.8832L95.011 35H92.1985L88.3136 23.4375H88.1999L84.3221 35ZM84.4144 29.2969H92.0849V31.4134H84.4144V29.2969ZM94.5298 22.6634V20.4545H106.135V22.6634H101.639V35H99.0256V22.6634H94.5298ZM111.007 20.4545V35H108.372V20.4545H111.007ZM115.806 20.4545L119.592 31.9034H119.741L123.52 20.4545H126.417L121.289 35H118.037L112.916 20.4545H115.806ZM128.333 35V20.4545H137.793V22.6634H130.968V26.6122H137.303V28.821H130.968V32.7912H137.85V35H128.333ZM153.347 24.4531C153.281 23.8329 153.002 23.3499 152.509 23.0043C152.022 22.6586 151.387 22.4858 150.606 22.4858C150.057 22.4858 149.585 22.5687 149.192 22.7344C148.799 22.9001 148.499 23.125 148.29 23.4091C148.082 23.6932 147.976 24.0175 147.971 24.3821C147.971 24.6851 148.04 24.9479 148.177 25.1705C148.319 25.393 148.511 25.5824 148.752 25.7386C148.994 25.8902 149.261 26.018 149.555 26.1222C149.848 26.2263 150.144 26.3139 150.442 26.3849L151.806 26.7259C152.355 26.8537 152.883 27.0265 153.39 27.2443C153.901 27.4621 154.358 27.7367 154.761 28.0682C155.168 28.3996 155.49 28.7997 155.727 29.2685C155.963 29.7372 156.082 30.2865 156.082 30.9162C156.082 31.7685 155.864 32.5189 155.428 33.1676C154.993 33.8116 154.363 34.3158 153.539 34.6804C152.72 35.0402 151.728 35.2202 150.563 35.2202C149.432 35.2202 148.449 35.045 147.616 34.6946C146.787 34.3442 146.138 33.8329 145.67 33.1605C145.206 32.4882 144.955 31.669 144.917 30.7031H147.509C147.547 31.2098 147.703 31.6312 147.978 31.9673C148.253 32.3035 148.61 32.5545 149.05 32.7202C149.496 32.8859 149.993 32.9688 150.542 32.9688C151.115 32.9688 151.617 32.8835 152.048 32.7131C152.483 32.5379 152.824 32.2964 153.07 31.9886C153.317 31.6761 153.442 31.3116 153.447 30.8949C153.442 30.5161 153.331 30.2036 153.113 29.9574C152.895 29.7064 152.59 29.4981 152.197 29.3324C151.808 29.1619 151.354 29.0104 150.833 28.8778L149.178 28.4517C147.98 28.1439 147.033 27.6776 146.337 27.0526C145.646 26.4228 145.3 25.5871 145.3 24.5455C145.3 23.6884 145.532 22.938 145.996 22.294C146.465 21.6501 147.102 21.1506 147.907 20.7955C148.712 20.4356 149.623 20.2557 150.641 20.2557C151.674 20.2557 152.578 20.4356 153.354 20.7955C154.136 21.1506 154.749 21.6454 155.194 22.2798C155.639 22.9096 155.869 23.634 155.883 24.4531H153.347ZM158.431 35V20.4545H163.885C165.003 20.4545 165.94 20.6629 166.698 21.0795C167.46 21.4962 168.035 22.0691 168.424 22.7983C168.817 23.5227 169.013 24.3466 169.013 25.2699C169.013 26.2027 168.817 27.0312 168.424 27.7557C168.031 28.4801 167.451 29.0507 166.684 29.4673C165.917 29.8793 164.972 30.0852 163.85 30.0852H160.235V27.919H163.495C164.148 27.919 164.683 27.8054 165.1 27.5781C165.516 27.3509 165.824 27.0384 166.023 26.6406C166.227 26.2429 166.328 25.786 166.328 25.2699C166.328 24.7538 166.227 24.2992 166.023 23.9062C165.824 23.5133 165.514 23.2079 165.093 22.9901C164.676 22.7675 164.139 22.6562 163.48 22.6562H161.066V35H158.431ZM171.302 35V20.4545H173.937V26.6122H180.677V20.4545H183.319V35H180.677V28.821H173.937V35H171.302ZM186.185 35V20.4545H195.645V22.6634H188.82V26.6122H195.155V28.821H188.82V32.7912H195.702V35H186.185ZM198.333 35V20.4545H203.788C204.905 20.4545 205.843 20.6487 206.6 21.0369C207.362 21.4252 207.938 21.9697 208.326 22.6705C208.719 23.3665 208.915 24.1785 208.915 25.1065C208.915 26.0393 208.717 26.849 208.319 27.5355C207.926 28.2173 207.346 28.7453 206.579 29.1193C205.812 29.4886 204.87 29.6733 203.752 29.6733H199.867V27.4858H203.397C204.05 27.4858 204.585 27.3958 205.002 27.2159C205.419 27.0312 205.727 26.7637 205.925 26.4134C206.129 26.0582 206.231 25.6226 206.231 25.1065C206.231 24.5904 206.129 24.1501 205.925 23.7855C205.722 23.4162 205.412 23.1368 204.995 22.9474C204.578 22.7533 204.041 22.6562 203.383 22.6562H200.968V35H198.333ZM205.847 28.4091L209.448 35H206.508L202.971 28.4091H205.847ZM211.341 35V20.4545H220.801V22.6634H213.976V26.6122H220.311V28.821H213.976V32.7912H220.858V35H211.341ZM224.96 35.1562C224.529 35.1562 224.159 35.0047 223.852 34.7017C223.544 34.3987 223.392 34.0294 223.397 33.5938C223.392 33.1676 223.544 32.803 223.852 32.5C224.159 32.197 224.529 32.0455 224.96 32.0455C225.376 32.0455 225.738 32.197 226.046 32.5C226.359 32.803 226.517 33.1676 226.522 33.5938C226.517 33.8826 226.442 34.1454 226.295 34.3821C226.153 34.6188 225.963 34.8082 225.727 34.9503C225.495 35.0876 225.239 35.1562 224.96 35.1562Z" fill="black"/>
</svg>
