<svg width="33" height="33" viewBox="0 0 33 33" fill="none" xmlns="http://www.w3.org/2000/svg">
<path d="M1.2365 24.5182C1.2365 28.8712 4.76528 32.4 9.11825 32.4C13.4712 32.4 17 28.8712 17 24.5182C17 20.1653 13.4712 16.6365 9.11825 16.6365C4.76528 16.6365 1.2365 20.1653 1.2365 24.5182Z" fill="black"/>
<path d="M16.1 0.9L16.1 16.1L8.50006 16.1C4.30268 16.1 0.899999 12.6974 0.899999 8.50002C0.899999 4.30265 4.30269 0.899999 8.50006 0.9L16.1 0.9Z" stroke="black" stroke-width="1.8"/>
<path d="M16.9001 31.1L16.9 15.9H24C27.8706 15.9 31.1 19.2505 31.1 23.5C31.1 27.7496 27.8706 31.1 24 31.1H16.9001Z" stroke="black" stroke-width="1.8"/>
<path d="M31.7499 16L15 16L26.5574 5.35993L31.75 2.21509e-07L31.7499 16Z" fill="black"/>
</svg>
