<svg width="24" height="24" viewBox="0 0 24 24" fill="none" xmlns="http://www.w3.org/2000/svg">
<path d="M7.71 17.71L16 9.41999L16 15C16 15.2652 16.1054 15.5196 16.2929 15.7071C16.4804 15.8946 16.7348 16 17 16C17.2652 16 17.5196 15.8946 17.7071 15.7071C17.8946 15.5196 18 15.2652 18 15L18 7.04999C18 6.78477 17.8946 6.53042 17.7071 6.34288C17.5196 6.15534 17.2652 6.04999 17 6.04999L9 6.04999C8.73479 6.04999 8.48043 6.15534 8.2929 6.34288C8.10536 6.53042 8 6.78477 8 7.04999L8 6.99999C8 7.2652 8.10536 7.51956 8.2929 7.70709C8.48043 7.89463 8.73479 7.99999 9 7.99999L14.55 7.99999L6.29 16.26C6.19627 16.353 6.12188 16.4636 6.07111 16.5854C6.02034 16.7073 5.9942 16.838 5.9942 16.97C5.9942 17.102 6.02034 17.2327 6.07111 17.3546C6.12188 17.4764 6.19627 17.587 6.29 17.68C6.38097 17.7757 6.48999 17.8525 6.61078 17.9058C6.73157 17.9592 6.86173 17.9881 6.99375 17.9909C7.12577 17.9937 7.25704 17.9703 7.37997 17.9221C7.5029 17.8739 7.61507 17.8018 7.71 17.71Z" fill="black"/>
</svg>
