<svg width="49" height="49" viewBox="0 0 49 49" fill="none" xmlns="http://www.w3.org/2000/svg">
<path d="M37.7708 32.1031L37.7953 32.1317C38.1873 32.5252 38.667 32.8202 39.1952 32.9923C39.7233 33.1645 40.2847 33.2089 40.8333 33.1219V40.3228C40.8335 41.4868 40.3917 42.6075 39.5974 43.4583C38.803 44.3092 37.7153 44.8267 36.554 44.9064L36.2396 44.9166H12.7604C11.5964 44.9167 10.4757 44.475 9.62491 43.6806C8.77408 42.8863 8.25653 41.7985 8.17686 40.6372L8.16665 40.3228V33.1198C8.65815 33.1978 9.16061 33.1704 9.64071 33.0394C10.1208 32.9085 10.5676 32.677 10.9515 32.3603L11.2271 32.1051L11.2292 40.3228C11.2292 41.0987 11.8049 41.7397 12.5522 41.8398L12.7604 41.8541H36.2396C36.6096 41.8541 36.9671 41.7201 37.246 41.4769C37.5248 41.2336 37.7062 40.8977 37.7565 40.5311L37.7708 40.3228V32.1031ZM9.75915 18.3096C10.019 18.569 10.177 18.9131 10.2044 19.2792C10.2317 19.6454 10.1266 20.0092 9.90819 20.3043L9.75915 20.4758L7.26628 22.9666H14.9919C15.731 22.9666 16.3313 23.6506 16.3313 24.4979C16.3313 25.2717 15.827 25.9128 15.1737 26.0128L14.9899 26.0271H7.26832L9.76119 28.522C10.0205 28.7813 10.1782 29.125 10.2055 29.4907C10.2329 29.8564 10.1281 30.2197 9.91023 30.5147L9.76119 30.6862C9.50193 30.9455 9.1582 31.1032 8.79252 31.1305C8.42684 31.1579 8.06349 31.0531 7.76853 30.8352L7.59498 30.6862L2.75624 25.8535C2.53166 25.7075 2.34814 25.5065 2.22307 25.2696C2.09801 25.0327 2.03556 24.7677 2.04165 24.4999C2.03521 24.2318 2.09749 23.9664 2.22257 23.7291C2.34765 23.4918 2.53136 23.2905 2.75624 23.1443L7.59498 18.3116C7.73719 18.1693 7.90603 18.0565 8.09188 17.9794C8.27772 17.9024 8.47692 17.8628 8.67809 17.8628C8.87926 17.8628 9.07846 17.9024 9.2643 17.9794C9.45014 18.0565 9.61899 18.1693 9.76119 18.3116M39.2388 18.3055C39.498 18.0462 39.8418 17.8885 40.2074 17.8611C40.5731 17.8338 40.9365 17.9386 41.2314 18.1565L41.4029 18.3055L46.2417 23.1381C46.4669 23.2841 46.6511 23.4854 46.7765 23.7227C46.9019 23.96 46.9645 24.2254 46.9583 24.4938C46.9622 24.7304 46.9137 24.965 46.8162 25.1806C46.7188 25.3963 46.5749 25.5877 46.3948 25.7412L46.2417 25.8495L41.4029 30.6821L41.2314 30.8311C40.9713 31.0234 40.6569 31.1284 40.3334 31.131C40.0099 31.1335 39.6939 31.0336 39.4307 30.8454L39.2388 30.6821L39.0897 30.5106C38.8974 30.2504 38.7925 29.936 38.7899 29.6125C38.7873 29.289 38.8873 28.973 39.0754 28.7098L39.2388 28.5179L41.7316 26.023H34.006L33.8243 26.0107C33.1709 25.9087 32.6667 25.2676 32.6667 24.4918C32.6667 23.7159 33.1709 23.0769 33.8243 22.9748L34.008 22.9605H41.7316L39.2388 20.4697L39.0897 20.3002C38.8713 20.0051 38.7662 19.6413 38.7935 19.2752C38.8209 18.909 38.9789 18.5649 39.2388 18.3055ZM36.2396 4.08325C37.4036 4.08311 38.5242 4.52486 39.3751 5.31921C40.2259 6.11357 40.7434 7.20131 40.8231 8.36259L40.8333 8.677V15.8575C40.3413 15.786 39.8398 15.8181 39.361 15.9517C38.8821 16.0853 38.4365 16.3175 38.0526 16.6334L37.7688 16.8927L37.7708 8.677C37.7708 8.30697 37.6368 7.94947 37.3936 7.6706C37.1504 7.39173 36.8144 7.21037 36.4478 7.16004L36.2396 7.14575H12.7604C12.3904 7.14577 12.0329 7.27977 11.754 7.52298C11.4751 7.7662 11.2938 8.10216 11.2434 8.46875L11.2292 8.677V16.8906L11.2047 16.8661C10.812 16.4726 10.3329 16.1763 9.80542 16.0008C9.27795 15.8253 8.71677 15.7756 8.16665 15.8555V8.677C8.16651 7.51299 8.60825 6.39233 9.40261 5.54151C10.197 4.69068 11.2847 4.17313 12.446 4.09346L12.7604 4.08325H36.2396Z" fill="black"/>
</svg>
