<svg width="48" height="47" viewBox="0 0 48 47" fill="none" xmlns="http://www.w3.org/2000/svg">
<path fill-rule="evenodd" clip-rule="evenodd" d="M27.9167 13.7084C27.3973 13.7084 26.8992 13.9147 26.5319 14.282C26.1647 14.6492 25.9583 15.1473 25.9583 15.6667V31.3334C25.9583 31.8528 26.1647 32.3509 26.5319 32.7181C26.8992 33.0854 27.3973 33.2917 27.9167 33.2917H35.75C36.2694 33.2917 36.7675 33.0854 37.1348 32.7181C37.502 32.3509 37.7083 31.8528 37.7083 31.3334V15.6667C37.7083 15.1473 37.502 14.6492 37.1348 14.282C36.7675 13.9147 36.2694 13.7084 35.75 13.7084H27.9167ZM33.7917 17.625H29.875V29.375H33.7917V17.625Z" fill="white"/>
<path d="M12.25 13.7084C11.7306 13.7084 11.2325 13.9147 10.8653 14.282C10.498 14.6492 10.2917 15.1473 10.2917 15.6667C10.2917 16.1861 10.498 16.6842 10.8653 17.0515C11.2325 17.4187 11.7306 17.625 12.25 17.625H20.0834C20.6027 17.625 21.1008 17.4187 21.4681 17.0515C21.8354 16.6842 22.0417 16.1861 22.0417 15.6667C22.0417 15.1473 21.8354 14.6492 21.4681 14.282C21.1008 13.9147 20.6027 13.7084 20.0834 13.7084H12.25ZM12.25 21.5417C11.7306 21.5417 11.2325 21.748 10.8653 22.1153C10.498 22.4825 10.2917 22.9807 10.2917 23.5C10.2917 24.0194 10.498 24.5175 10.8653 24.8848C11.2325 25.2521 11.7306 25.4584 12.25 25.4584H20.0834C20.6027 25.4584 21.1008 25.2521 21.4681 24.8848C21.8354 24.5175 22.0417 24.0194 22.0417 23.5C22.0417 22.9807 21.8354 22.4825 21.4681 22.1153C21.1008 21.748 20.6027 21.5417 20.0834 21.5417H12.25ZM10.2917 31.3334C10.2917 30.814 10.498 30.3159 10.8653 29.9486C11.2325 29.5814 11.7306 29.375 12.25 29.375H20.0834C20.6027 29.375 21.1008 29.5814 21.4681 29.9486C21.8354 30.3159 22.0417 30.814 22.0417 31.3334C22.0417 31.8528 21.8354 32.3509 21.4681 32.7181C21.1008 33.0854 20.6027 33.2917 20.0834 33.2917H12.25C11.7306 33.2917 11.2325 33.0854 10.8653 32.7181C10.498 32.3509 10.2917 31.8528 10.2917 31.3334Z" fill="white"/>
<path fill-rule="evenodd" clip-rule="evenodd" d="M8.33334 5.875C6.7752 5.875 5.28087 6.49397 4.17909 7.59575C3.07731 8.69752 2.45834 10.1919 2.45834 11.75V35.25C2.45834 36.8081 3.07731 38.3025 4.17909 39.4043C5.28087 40.506 6.7752 41.125 8.33334 41.125H39.6667C41.2248 41.125 42.7192 40.506 43.8209 39.4043C44.9227 38.3025 45.5417 36.8081 45.5417 35.25V11.75C45.5417 10.1919 44.9227 8.69752 43.8209 7.59575C42.7192 6.49397 41.2248 5.875 39.6667 5.875H8.33334ZM39.6667 9.79167H8.33334C7.81396 9.79167 7.31585 9.99799 6.94859 10.3652C6.58133 10.7325 6.37501 11.2306 6.37501 11.75V35.25C6.37501 35.7694 6.58133 36.2675 6.94859 36.6348C7.31585 37.002 7.81396 37.2083 8.33334 37.2083H39.6667C40.1861 37.2083 40.6842 37.002 41.0514 36.6348C41.4187 36.2675 41.625 35.7694 41.625 35.25V11.75C41.625 11.2306 41.4187 10.7325 41.0514 10.3652C40.6842 9.99799 40.1861 9.79167 39.6667 9.79167Z" fill="white"/>
</svg>
